<svg width="76" height="20" viewBox="0 0 76 20" fill="none" xmlns="http://www.w3.org/2000/svg">
<path d="M1.26 19V2.8H4.84V9.36H7.34V2.8H10.94V19H7.34V11.92H4.84V19H1.26ZM18.047 19.24C16.8337 19.24 15.8737 19.0267 15.167 18.6C14.4604 18.1733 13.9537 17.56 13.647 16.76C13.3404 15.96 13.187 15.0067 13.187 13.9V7.88C13.187 6.76 13.3404 5.80667 13.647 5.02C13.9537 4.23333 14.4604 3.63333 15.167 3.22C15.8737 2.79333 16.8337 2.58 18.047 2.58C19.2737 2.58 20.2404 2.79333 20.947 3.22C21.667 3.63333 22.1804 4.23333 22.487 5.02C22.7937 5.80667 22.947 6.76 22.947 7.88V13.9C22.947 15.0067 22.7937 15.96 22.487 16.76C22.1804 17.56 21.667 18.1733 20.947 18.6C20.2404 19.0267 19.2737 19.24 18.047 19.24ZM18.047 16.7C18.4204 16.7 18.6937 16.6067 18.867 16.42C19.0404 16.2333 19.1537 15.9933 19.207 15.7C19.2604 15.4067 19.287 15.1067 19.287 14.8V7C19.287 6.68 19.2604 6.38 19.207 6.1C19.1537 5.80667 19.0404 5.56667 18.867 5.38C18.6937 5.19333 18.4204 5.1 18.047 5.1C17.7004 5.1 17.4404 5.19333 17.267 5.38C17.0937 5.56667 16.9804 5.80667 16.927 6.1C16.8737 6.38 16.847 6.68 16.847 7V14.8C16.847 15.1067 16.867 15.4067 16.907 15.7C16.9604 15.9933 17.067 16.2333 17.227 16.42C17.4004 16.6067 17.6737 16.7 18.047 16.7ZM25.1258 19V2.8H28.7058V16.58H32.4258V19H25.1258ZM34.013 19V2.8H37.593V19H34.013ZM44.3086 19.24C43.2953 19.24 42.4486 19.06 41.7686 18.7C41.0886 18.34 40.5753 17.7867 40.2286 17.04C39.8819 16.28 39.6886 15.3 39.6486 14.1L42.7086 13.64C42.7219 14.3333 42.7819 14.8933 42.8886 15.32C43.0086 15.7467 43.1686 16.0533 43.3686 16.24C43.5819 16.4267 43.8353 16.52 44.1286 16.52C44.5019 16.52 44.7419 16.3933 44.8486 16.14C44.9686 15.8867 45.0286 15.62 45.0286 15.34C45.0286 14.6733 44.8686 14.1133 44.5486 13.66C44.2286 13.1933 43.7953 12.7267 43.2486 12.26L41.8486 11.04C41.2353 10.52 40.7153 9.93333 40.2886 9.28C39.8753 8.61333 39.6686 7.79333 39.6686 6.82C39.6686 5.44667 40.0753 4.4 40.8886 3.68C41.7019 2.94667 42.8086 2.58 44.2086 2.58C45.0753 2.58 45.7686 2.72667 46.2886 3.02C46.8219 3.31333 47.2219 3.7 47.4886 4.18C47.7686 4.64667 47.9553 5.14667 48.0486 5.68C48.1553 6.2 48.2153 6.7 48.2286 7.18L45.1486 7.56C45.1353 7.08 45.1019 6.66667 45.0486 6.32C45.0086 5.96 44.9153 5.68667 44.7686 5.5C44.6219 5.3 44.3953 5.2 44.0886 5.2C43.7553 5.2 43.5086 5.34 43.3486 5.62C43.2019 5.9 43.1286 6.18 43.1286 6.46C43.1286 7.06 43.2686 7.55333 43.5486 7.94C43.8419 8.31333 44.2219 8.70667 44.6886 9.12L46.0286 10.3C46.7353 10.9 47.3286 11.58 47.8086 12.34C48.3019 13.1 48.5486 14.04 48.5486 15.16C48.5486 15.92 48.3753 16.6133 48.0286 17.24C47.6819 17.8533 47.1886 18.34 46.5486 18.7C45.9219 19.06 45.1753 19.24 44.3086 19.24ZM51.742 19V5.46H49.302V2.8H57.762V5.46H55.342V19H51.742ZM59.2083 19V2.8H62.7883V19H59.2083ZM69.8439 19.24C68.6172 19.24 67.6439 19.02 66.9239 18.58C66.2172 18.1267 65.7172 17.5 65.4239 16.7C65.1306 15.8867 64.9839 14.9333 64.9839 13.84V8C64.9839 6.88 65.1306 5.92 65.4239 5.12C65.7172 4.30667 66.2172 3.68 66.9239 3.24C67.6439 2.8 68.6172 2.58 69.8439 2.58C71.0439 2.58 71.9772 2.78 72.6439 3.18C73.3239 3.56667 73.8039 4.11333 74.0839 4.82C74.3639 5.52667 74.5039 6.34 74.5039 7.26V8.66H71.0039V7.04C71.0039 6.72 70.9839 6.41333 70.9439 6.12C70.9172 5.82667 70.8239 5.58667 70.6639 5.4C70.5039 5.2 70.2306 5.1 69.8439 5.1C69.4706 5.1 69.1906 5.2 69.0039 5.4C68.8306 5.6 68.7172 5.85333 68.6639 6.16C68.6239 6.45333 68.6039 6.76667 68.6039 7.1V14.72C68.6039 15.08 68.6306 15.4133 68.6839 15.72C68.7506 16.0133 68.8706 16.2533 69.0439 16.44C69.2306 16.6133 69.4972 16.7 69.8439 16.7C70.2172 16.7 70.4839 16.6067 70.6439 16.42C70.8039 16.22 70.9039 15.9667 70.9439 15.66C70.9839 15.3533 71.0039 15.04 71.0039 14.72V13.02H74.5039V14.42C74.5039 15.34 74.3639 16.1667 74.0839 16.9C73.8172 17.62 73.3439 18.1933 72.6639 18.62C71.9972 19.0333 71.0572 19.24 69.8439 19.24Z" fill="white"/>
</svg>
